<?xml version="1.0" encoding="utf-8"?>
<!-- Generator: Adobe Illustrator 19.2.1, SVG Export Plug-In . SVG Version: 6.00 Build 0)  -->
<svg version="1.1" id="Layer_1" xmlns="http://www.w3.org/2000/svg" xmlns:xlink="http://www.w3.org/1999/xlink" x="0px" y="0px"
	 viewBox="0 0 4 6.8" style="enable-background:new 0 0 4 6.8;" xml:space="preserve">
<style type="text/css">
	.st0{clip-path:url(#SVGID_2_);}
	.st1{clip-path:url(#SVGID_4_);fill:#A8AAB7;}
</style>
<g>
	<defs>
		<path id="SVGID_1_" d="M2.7,3.4L0.3,5.9c-0.2,0.2-0.2,0.5,0,0.7c0.2,0.2,0.5,0.2,0.7,0l2.8-2.8C3.9,3.7,4,3.5,4,3.4
			c0-0.1-0.1-0.3-0.1-0.4L1,0.2C0.8,0,0.5,0,0.3,0.2c-0.2,0.2-0.2,0.5,0,0.7L2.7,3.4z"/>
	</defs>
	<clipPath id="SVGID_2_">
		<use xlink:href="#SVGID_1_"  style="overflow:visible;"/>
	</clipPath>
	<g class="st0">
		<defs>
			<rect id="SVGID_3_" x="-601.9" y="-96.1" width="1020" height="1580"/>
		</defs>
		<clipPath id="SVGID_4_">
			<use xlink:href="#SVGID_3_"  style="overflow:visible;"/>
		</clipPath>
		<rect x="-6.9" y="-4.1" transform="matrix(0.7071 -0.7071 0.7071 0.7071 -2.2251 1.4381)" class="st1" width="15" height="15"/>
	</g>
</g>
</svg>
