<?xml version="1.0" encoding="UTF-8"?>
<svg width="60px" height="60px" viewBox="0 0 60 60" version="1.1" xmlns="http://www.w3.org/2000/svg" xmlns:xlink="http://www.w3.org/1999/xlink">
    <title>graph</title>
    <g id="Page-1" stroke="none" stroke-width="1" fill="none" fill-rule="evenodd">
        <g id="graph" fill-rule="nonzero">
            <g id="Group" transform="translate(12.999750, 29.999750)" fill="#FFFFFF">
                <path d="M5.30625,3.28025 L0.29325,8.29325 C-0.09775,8.68425 -0.09775,9.31625 0.29325,9.70725 C0.48825,9.90225 0.74425,10.00025 1.00025,10.00025 C1.25625,10.00025 1.51225,9.90225 1.70725,9.70725 L6.72025,4.69425 C7.11125,4.30325 7.11125,3.67125 6.72025,3.28025 C6.32925,2.88925 5.69625,2.89025 5.30625,3.28025 Z" id="Path"></path>
                <path d="M14.69425,3.28025 C14.30325,2.88925 13.67125,2.88925 13.28025,3.28025 C12.88925,3.67125 12.88925,4.30325 13.28025,4.69425 L19.30525,10.71925 C19.50025,10.91425 19.75625,11.01225 20.01225,11.01225 C20.26825,11.01225 20.52425,10.91425 20.71925,10.71925 C21.11025,10.32825 21.11025,9.69625 20.71925,9.30525 L14.69425,3.28025 Z" id="Path"></path>
                <path d="M37.70725,0.29325 C37.31625,-0.09775 36.68425,-0.09775 36.29325,0.29325 L26.29325,10.29325 C25.90225,10.68425 25.90225,11.31625 26.29325,11.70725 C26.48825,11.90225 26.74425,12.00025 27.00025,12.00025 C27.25625,12.00025 27.51225,11.90225 27.70725,11.70725 L37.70725,1.70725 C38.09825,1.31625 38.09825,0.68425 37.70725,0.29325 Z" id="Path"></path>
            </g>
            <path d="M3,60 C2.447,60 2,59.553 2,59 L2,1 C2,0.447 2.447,0 3,0 C3.553,0 4,0.447 4,1 L4,59 C4,59.553 3.553,60 3,60 Z" id="Path" fill="#FFFFFF"></path>
            <path d="M59,58 L1,58 C0.447,58 0,57.553 0,57 C0,56.447 0.447,56 1,56 L59,56 C59.553,56 60,56.447 60,57 C60,57.553 59.553,58 59,58 Z" id="Path" fill="#FFFFFF"></path>
            <path d="M9,29 L7,29 C6.447,29 6,28.553 6,28 C6,27.447 6.447,27 7,27 L9,27 C9.553,27 10,27.447 10,28 C10,28.553 9.553,29 9,29 Z" id="Path" fill="#BDC3C7"></path>
            <path d="M9,25 L7,25 C6.447,25 6,24.553 6,24 C6,23.447 6.447,23 7,23 L9,23 C9.553,23 10,23.447 10,24 C10,24.553 9.553,25 9,25 Z" id="Path" fill="#BDC3C7"></path>
            <path d="M9,21 L7,21 C6.447,21 6,20.553 6,20 C6,19.447 6.447,19 7,19 L9,19 C9.553,19 10,19.447 10,20 C10,20.553 9.553,21 9,21 Z" id="Path" fill="#BDC3C7"></path>
            <path d="M9,17 L7,17 C6.447,17 6,16.553 6,16 C6,15.447 6.447,15 7,15 L9,15 C9.553,15 10,15.447 10,16 C10,16.553 9.553,17 9,17 Z" id="Path" fill="#BDC3C7"></path>
            <path d="M9,13 L7,13 C6.447,13 6,12.553 6,12 C6,11.447 6.447,11 7,11 L9,11 C9.553,11 10,11.447 10,12 C10,12.553 9.553,13 9,13 Z" id="Path" fill="#BDC3C7"></path>
            <path d="M9,9 L7,9 C6.447,9 6,8.553 6,8 C6,7.447 6.447,7 7,7 L9,7 C9.553,7 10,7.447 10,8 C10,8.553 9.553,9 9,9 Z" id="Path" fill="#BDC3C7"></path>
            <path d="M9,5 L7,5 C6.447,5 6,4.553 6,4 C6,3.447 6.447,3 7,3 L9,3 C9.553,3 10,3.447 10,4 C10,4.553 9.553,5 9,5 Z" id="Path" fill="#BDC3C7"></path>
            <circle id="Oval" fill="#F29C1F" cx="11.012" cy="42.988" r="5"></circle>
            <circle id="Oval" fill="#71C285" cx="23" cy="31" r="5"></circle>
            <circle id="Oval" fill="#71C285" cx="54" cy="28" r="5"></circle>
            <circle id="Oval" fill="#F29C1F" cx="36" cy="44" r="5"></circle>
        </g>
    </g>
</svg>