<?xml version="1.0" encoding="UTF-8"?>
<svg width="26px" height="23px" viewBox="0 0 26 23" version="1.1" xmlns="http://www.w3.org/2000/svg" xmlns:xlink="http://www.w3.org/1999/xlink">
    <title>🔹Icon-Color</title>
    <g id="Page-1" stroke="none" stroke-width="1" fill="none" fill-rule="evenodd">
        <g id="19986768931556258249" transform="translate(-2.000000, -3.000000)" fill="#FFFFFF" fill-rule="nonzero">
            <path d="M12.3099681,24.0240754 L12.3099681,17.4194521 L17.5936667,17.4194521 L17.5936667,24.0240754 C17.5936667,24.7505839 18.1880828,25.345 18.9145913,25.345 L22.8773653,25.345 C23.6038738,25.345 24.1982899,24.7505839 24.1982899,24.0240754 L24.1982899,14.7776028 L26.4438618,14.7776028 C27.0514872,14.7776028 27.3420906,14.0246758 26.879767,13.6283984 L15.8368369,3.68183579 C15.3348855,3.2327214 14.5687493,3.2327214 14.0667979,3.68183579 L3.02386784,13.6283984 C2.57475346,14.0246758 2.85214763,14.7776028 3.45977297,14.7776028 L5.70534487,14.7776028 L5.70534487,24.0240754 C5.70534487,24.7505839 6.29976096,25.345 7.02626952,25.345 L10.9890435,25.345 C11.715552,25.345 12.3099681,24.7505839 12.3099681,24.0240754 Z" id="🔹Icon-Color"></path>
        </g>
    </g>
</svg>