<?xml version="1.0" encoding="UTF-8"?>
<svg width="31px" height="32px" viewBox="0 0 31 32" version="1.1" xmlns="http://www.w3.org/2000/svg" xmlns:xlink="http://www.w3.org/1999/xlink">
    <title>icon-plus-tree</title>
    <g id="Page-1" stroke="none" stroke-width="1" fill="none" fill-rule="evenodd">
        <g id="icon-plus-tree" fill-rule="nonzero">
            <g id="Group">
                <path d="M15.5,31.1 C7,31.1 0,24.1 0,15.5 C0,6.9 7,0 15.5,0 C24,0 31,7 31,15.5 C31.1,24.1 24.1,31.1 15.5,31.1 Z" id="Path" fill="#FFFFFF"></path>
                <path d="M21.7,16.4 L9.4,16.4 C8.9,16.4 8.5,16 8.5,15.5 C8.5,15 8.9,14.6 9.4,14.6 L21.6,14.6 C22.1,14.6 22.5,15 22.5,15.5 C22.5,16 22.1,16.4 21.7,16.4 Z" id="Path" fill="#C9C9C9"></path>
            </g>
            <g id="Group">
                <path d="M15.5,31.1 C7,31.1 0,24.1 0,15.5 C0,6.9 7,0 15.5,0 C24,0 31,7 31,15.5 C31.1,24.1 24.1,31.1 15.5,31.1 Z M15.5,1.8 C7.9,1.8 1.8,7.9 1.8,15.5 C1.8,23.1 8,29.3 15.6,29.3 C23.2,29.3 29.4,23.1 29.4,15.5 C29.4,7.9 23.1,1.8 15.5,1.8 Z" id="Shape" fill="#FFFFFF"></path>
                <path d="M21.7,16.4 L9.4,16.4 C8.9,16.4 8.5,16 8.5,15.5 C8.5,15 8.9,14.6 9.4,14.6 L21.6,14.6 C22.1,14.6 22.5,15 22.5,15.5 C22.5,16 22.1,16.4 21.7,16.4 Z" id="Path" fill="#515151"></path>
                <path d="M15.5,22.5 C15,22.5 14.6,22.1 14.6,21.6 L14.6,9.4 C14.6,8.9 15,8.5 15.5,8.5 C16,8.5 16.4,8.9 16.4,9.4 L16.4,21.6 C16.4,22.1 16,22.5 15.5,22.5 Z" id="Path" fill="#515151"></path>
            </g>
        </g>
    </g>
</svg>