<?xml version="1.0" encoding="UTF-8"?>
<svg width="31px" height="32px" viewBox="0 0 31 32" version="1.1" xmlns="http://www.w3.org/2000/svg" xmlns:xlink="http://www.w3.org/1999/xlink">
    <title>icon-smiley-happy</title>
    <g id="Page-1" stroke="none" stroke-width="1" fill="none" fill-rule="evenodd">
        <g id="icon-smiley-happy" transform="translate(0.800000, 0.800000)" fill="#FFFFFF" fill-rule="nonzero">
            <path d="M15.2,1.7 C18.8,1.7 22.2,3.1 24.8,5.7 C27.3,8.2 28.8,11.7 28.8,15.3 C28.8,18.9 27.4,22.3 24.8,24.9 C22.3,27.4 18.8,28.9 15.2,28.9 C11.6,28.9 8.2,27.5 5.6,24.9 C3.1,22.4 1.6,18.9 1.6,15.3 C1.6,11.7 3,8.3 5.6,5.7 C8.2,3.1 11.6,1.7 15.2,1.7 M15.2,0 C11.2,0 7.3,1.6 4.5,4.4 C1.6,7.3 0,11.2 0,15.2 C0,19.2 1.6,23.1 4.4,25.9 C7.2,28.7 11.1,30.3 15.1,30.3 C19.1,30.3 23,28.7 25.8,25.9 C28.6,23.1 30.2,19.2 30.2,15.2 C30.2,11.2 28.6,7.3 25.8,4.5 C23.1,1.6 19.2,0 15.2,0 Z" id="Shape"></path>
            <path d="M15.2,20.2 C12.7,20.2 10.3,19.1 8.8,17.1 C8.6,16.8 8.5,16.4 8.7,16.1 C8.9,15.8 9.2,15.6 9.6,15.6 L21,15.6 C21.4,15.6 21.7,15.8 21.9,16.1 C22.1,16.4 22,16.8 21.8,17.1 C20.1,19.1 17.7,20.2 15.2,20.2 L15.2,20.2 Z M12,17.5 C14,18.6 16.4,18.6 18.3,17.5 L12,17.5 Z" id="Shape"></path>
            <path d="M22.5,12.4 C22.2,12.4 21.9,12.2 21.7,12 C21.6,11.7 21.2,11.5 20.9,11.5 C20.6,11.5 20.2,11.7 20.1,12 C20,12.2 19.8,12.4 19.5,12.4 C19.2,12.5 19,12.4 18.8,12.3 C18.6,12.2 18.4,11.9 18.4,11.7 C18.4,11.4 18.4,11.2 18.6,11 C19.1,10.2 20,9.6 21,9.6 C22,9.6 22.9,10.1 23.4,11 C23.6,11.3 23.6,11.7 23.4,12 C23.2,12.3 22.8,12.4 22.5,12.4 L22.5,12.4 Z" id="Path"></path>
            <path d="M11.1,12.4 C10.8,12.4 10.5,12.2 10.3,12 C10.1,11.7 9.8,11.5 9.5,11.5 C9.2,11.5 8.8,11.7 8.7,12 C8.6,12.2 8.3,12.4 8.1,12.4 C7.8,12.5 7.6,12.4 7.4,12.3 C7.2,12.2 7,11.9 7,11.7 C7,11.4 7,11.2 7.2,11 C7.7,10.2 8.6,9.6 9.6,9.6 C10.6,9.6 11.5,10.1 12,11 C12.2,11.3 12.2,11.7 12,12 C11.8,12.2 11.5,12.4 11.1,12.4 L11.1,12.4 Z" id="Path"></path>
        </g>
    </g>
</svg>