<?xml version="1.0" encoding="UTF-8"?>
<svg width="244px" height="134px" viewBox="0 0 244 134" version="1.1" xmlns="http://www.w3.org/2000/svg" xmlns:xlink="http://www.w3.org/1999/xlink">
    <title>Pega Community _ Training &amp; Resources for Pega Developers-13</title>
    <defs>
        <polygon id="path-1" points="0 3.77188715e-15 244 3.77188715e-15 244 134 0 134"></polygon>
    </defs>
    <g id="Page-1" stroke="none" stroke-width="1" fill="none" fill-rule="evenodd">
        <g id="Pega-Community-_-Training-&amp;-Resources-for-Pega-Developers-13">
            <g id="Fill-1-Clipped">
                <mask id="mask-2" fill="white">
                    <use xlink:href="#path-1"></use>
                </mask>
                <g id="path-1"></g>
                <path d="M217.785441,33.9487584 L217.486306,33.7708938 C217.455913,33.7489105 213.946276,31.7744135 211.202873,35.3816677 L210.852549,35.8433163 L216.472127,39.2826982 L217.785441,33.9487584 Z M243.511047,72.5034108 C243.511047,72.5034108 241.06038,77.9792427 239.963019,80.0037017 C238.860858,82.0441485 235.413608,83.311184 232.433456,81.5325379 C231.070552,80.723154 218.319725,71.4302277 213.440786,71.9638216 C188.743757,74.653774 182.01562,61.9414505 181.222192,60.7863298 C180.427165,59.6312091 178.941088,60.1687999 180.001658,62.4390718 C185.419679,74.0482349 201.454593,79.4281398 201.454593,79.4281398 C205.645681,92.0525302 206.147972,100.895799 206.147972,100.895799 C201.995275,96.8528762 197.51305,93.4454699 192.757284,90.6156239 C180.046448,79.9597351 160.148375,66.7637798 132.76073,58.4920762 C134.333188,31.346739 145.295605,-7.89139312 196.561257,1.38954229 C196.561257,1.38954229 206.84862,3.49593891 213.704729,9.41942999 C213.704729,9.41942999 212.057087,11.5777871 209.891158,14.2797304 C207.725229,16.9756782 210.121508,18.7063608 210.121508,18.7063608 L220.949553,29.3402664 C221.075926,34.9659841 221.261485,36.5407854 224.649549,41.6329093 C228.037612,46.7170393 241.210747,63.9539187 242.933573,66.2581647 C244.929939,68.9241354 243.511047,72.5034108 243.511047,72.5034108 Z M125.442322,19.5916869 C122.732511,33.5470642 122.938866,45.8417056 124.332163,56.1778378 C121.759923,55.5363261 119.146091,54.9247916 116.453876,54.3772084 C60.3476771,42.9698916 43.424957,77.5155956 49.9755325,105.528273 C31.4259662,114.239641 13.9945568,124.210052 -0.000799826073,134.0006 C22.0200116,68.016826 69.8752052,9.9450299 110.266422,2.310841 C123.453954,0.140493058 127.161948,10.8283575 125.442322,19.5916869 Z" id="Fill-1" fill="#FFFFFF" fill-rule="nonzero" mask="url(#mask-2)"></path>
            </g>
            <path d="M133.505705,79.5548108 C155.347932,77.4122251 175.962583,80.1321186 193,90.1943359 C180.299061,79.6163109 160.41648,66.5187638 133.048561,58.3075025 C132.501906,67.6932182 133.086923,75.6207853 133.505705,79.5548108 M130.352049,79.8960374 C105.880443,82.7964636 76.9428882,92.5948255 50.3294171,105 C43.7855401,77.1939987 60.6966827,42.8947725 116.7576,54.2207186 C119.447718,54.7643005 122.057917,55.3753342 124.628155,56.0081906 C125.958029,65.8184557 128.365229,73.8769586 130.352049,79.8960374" id="Fill-4" fill="#666E6E" fill-rule="nonzero"></path>
        </g>
    </g>
</svg>